<?xml version="1.0" standalone="no"?>
<!DOCTYPE svg PUBLIC "-//W3C//DTD SVG 20010904//EN"
 "http://www.w3.org/TR/2001/REC-SVG-20010904/DTD/svg10.dtd">
<svg version="1.0" xmlns="http://www.w3.org/2000/svg"
 width="185.000000pt" height="135.000000pt" viewBox="0 0 185.000000 135.000000"
 preserveAspectRatio="xMidYMid meet">

<g transform="translate(0.000000,135.000000) scale(0.100000,-0.100000)"
fill="#000000" stroke="none">
<path d="M642 1279 c-26 -10 -38 -52 -24 -82 11 -21 11 -20 6 5 -3 15 -3 36 1
48 5 17 13 21 43 18 30 -2 38 -7 40 -26 4 -28 -23 -62 -50 -62 -17 0 -18 -2
-4 -15 17 -18 36 -77 36 -117 0 -14 -5 -49 -12 -76 -11 -48 -12 -50 -42 -47
-17 1 -23 0 -13 -2 10 -3 21 -11 24 -18 5 -16 -23 -110 -42 -138 -12 -17 -14
-17 -32 7 -15 18 -28 24 -53 22 -18 -1 -38 -9 -44 -17 -6 -8 -24 -25 -38 -38
l-27 -23 -10 33 -11 34 5 -33 c5 -34 -13 -73 -48 -102 -10 -8 -22 -35 -28 -59
-5 -25 -17 -50 -26 -56 -12 -9 -12 -12 -2 -12 8 0 22 -4 32 -8 10 -4 17 -3 17
4 0 6 -4 11 -10 11 -5 0 -10 9 -10 20 0 11 4 20 9 20 5 0 7 9 4 19 -7 26 15
62 35 59 10 -2 16 3 14 11 -4 19 17 41 39 41 11 0 19 7 19 16 0 9 9 18 20 21
10 3 22 13 25 23 6 20 35 35 35 19 0 -6 7 -9 15 -5 8 3 14 0 12 -7 -1 -7 4
-11 12 -9 10 2 12 -4 7 -23 -5 -18 -2 -25 8 -25 26 0 27 -42 1 -72 -47 -55
-40 -98 18 -123 18 -8 29 -14 24 -15 -4 0 -1 -13 8 -30 19 -37 59 -49 94 -29
23 13 29 13 53 0 39 -22 79 -6 92 37 11 40 21 40 45 2 15 -26 20 -28 30 -16 9
10 20 12 42 6 23 -7 29 -6 29 7 0 12 8 15 39 10 31 -4 38 -2 34 9 -5 14 6 18
39 15 9 -1 22 7 28 18 6 13 21 21 36 21 22 0 23 2 14 20 -14 26 3 60 32 60 16
0 19 5 15 21 -7 25 4 54 32 89 16 20 23 22 32 13 10 -10 15 -9 25 4 10 15 16
15 39 5 21 -10 26 -18 22 -37 -3 -20 0 -25 15 -25 10 0 22 -10 28 -24 5 -13
18 -27 28 -30 11 -4 28 -17 38 -29 l19 -22 -24 20 -23 20 7 -35 c4 -19 14 -46
22 -59 8 -13 11 -21 6 -18 -6 4 -6 -9 0 -33 8 -29 8 -45 -2 -62 -26 -49 -41
-73 -41 -65 0 10 -46 -44 -50 -58 -2 -5 -16 -15 -31 -22 -16 -7 -31 -22 -35
-37 -4 -16 -11 -23 -20 -19 -8 3 -14 1 -14 -5 0 -8 -35 -23 -44 -19 -1 1 -10
-4 -19 -11 -10 -9 -17 -10 -22 -2 -3 6 -10 8 -15 5 -5 -3 -11 -1 -15 5 -4 6
-13 7 -23 1 -15 -8 -17 -3 -17 37 0 39 4 49 23 57 14 6 22 18 22 33 0 17 8 27
30 35 20 8 30 19 32 36 2 16 10 27 21 29 11 2 27 12 38 23 20 20 46 17 66 -9
7 -9 16 -12 20 -8 12 11 -35 46 -62 46 -12 0 -28 -7 -35 -15 -7 -8 -19 -15
-26 -15 -8 0 -22 -13 -32 -30 -10 -16 -30 -39 -45 -50 -15 -12 -27 -25 -27
-30 0 -5 -11 -21 -25 -36 -14 -15 -25 -39 -25 -54 0 -16 -7 -30 -16 -34 -8 -3
-12 -2 -9 4 3 5 -4 14 -16 20 -17 10 -20 9 -14 -2 6 -10 5 -11 -6 -1 -19 18
-42 16 -35 -2 5 -13 1 -12 -19 2 -13 10 -26 28 -30 41 -3 13 -13 26 -23 29 -9
4 -25 17 -35 30 -22 28 -43 29 -58 5 -8 -13 -20 -17 -36 -14 -14 3 -31 -2 -42
-12 -10 -9 -25 -14 -34 -10 -33 12 -84 -73 -58 -99 8 -8 11 -4 11 17 0 50 40
91 52 54 3 -8 14 -3 29 15 25 29 59 30 59 1 0 -26 19 -14 22 14 4 34 41 39 46
5 2 -14 11 -23 25 -25 16 -2 22 -10 22 -28 0 -15 -5 -24 -12 -23 -7 2 -13 -2
-13 -8 0 -5 -4 -8 -9 -4 -5 3 -17 -5 -25 -17 -9 -12 -16 -19 -16 -15 0 5 -7 1
-16 -8 -9 -9 -23 -14 -30 -11 -7 3 -16 -3 -19 -13 -8 -25 -15 -25 -285 -17
-155 5 -183 8 -230 25 -33 13 -83 25 -92 23 -5 -1 -8 2 -8 7 0 6 -9 8 -20 6
-11 -2 -20 0 -20 4 0 5 -10 7 -23 7 -12 -1 -29 2 -37 8 -8 6 -12 7 -8 2 4 -5
-3 -17 -15 -27 -19 -15 -20 -21 -9 -38 7 -12 8 -21 3 -21 -18 0 -23 41 -8 58
8 9 17 35 20 57 5 30 4 36 -4 22 -6 -9 -12 -27 -14 -38 -3 -12 -11 -32 -20
-45 -17 -26 -20 -21 56 -90 18 -16 45 -19 53 -5 12 19 65 4 101 -28 37 -32 40
-33 101 -26 39 4 77 2 103 -6 33 -10 52 -10 94 1 46 11 62 10 112 -4 l58 -17
64 31 c75 37 112 36 193 -5 73 -37 161 -43 230 -15 39 16 74 22 117 21 60 -1
63 0 89 34 26 34 28 35 100 35 40 0 83 4 96 9 13 6 41 13 62 16 49 8 96 55 96
96 0 20 -9 35 -30 51 -16 12 -30 28 -30 35 0 8 -6 16 -14 19 -8 3 -17 16 -20
29 -4 14 -15 29 -26 35 -12 7 -20 21 -20 37 0 20 -15 41 -53 78 -29 27 -58 63
-65 78 -6 15 -28 37 -47 48 -19 12 -35 27 -35 34 0 8 -9 17 -20 20 -11 3 -20
14 -20 24 0 36 -53 64 -76 41 -6 -6 -19 -8 -28 -4 -15 6 -17 15 -12 53 l5 46
-13 -47 c-8 -26 -23 -64 -35 -83 -12 -20 -21 -45 -21 -57 0 -11 -11 -29 -25
-40 -16 -13 -25 -29 -25 -49 0 -18 -5 -29 -14 -29 -7 0 -19 -7 -26 -15 -7 -8
-23 -15 -36 -15 -12 0 -26 -4 -29 -10 -3 -6 -19 -10 -35 -10 -16 0 -32 -5 -35
-10 -7 -12 -85 -14 -85 -2 0 5 -11 14 -24 22 -15 7 -27 25 -30 44 -13 67 -108
122 -197 114 -46 -5 -51 -3 -59 18 -7 17 -3 37 15 77 14 29 37 98 51 153 l26
100 33 -10 c19 -6 31 -14 29 -18 -9 -15 7 -48 24 -48 12 0 13 3 4 12 -17 17
-15 44 4 63 9 9 14 19 10 22 -3 4 -12 1 -18 -5 -29 -29 -77 -5 -92 45 -6 18
-4 22 8 17 9 -3 16 -1 16 4 0 6 -9 13 -19 17 -11 3 -22 12 -25 20 -4 13 -1 12
19 -1 15 -10 25 -12 25 -5 0 6 8 11 18 11 14 0 13 3 -6 18 -15 12 -21 24 -16
35 8 21 10 21 40 -2 14 -11 49 -27 77 -36 29 -9 62 -21 74 -27 18 -9 27 -8 42
6 16 15 34 18 93 14 121 -6 208 -64 243 -164 8 -22 14 -31 15 -21 1 54 -82
149 -154 176 -47 17 -155 26 -276 22 -47 -2 -150 54 -150 81 0 27 -40 41 -78
27z m73 -119 c3 -5 2 -10 -4 -10 -5 0 -13 5 -16 10 -3 6 -2 10 4 10 5 0 13 -4
16 -10z m65 -522 c52 -26 73 -62 72 -122 -1 -29 -7 -46 -23 -58 -25 -21 -30
-22 -53 -5 -15 11 -16 19 -8 48 5 19 6 43 2 54 -5 14 -8 8 -13 -25 -9 -70 -66
-102 -109 -63 -24 21 -23 44 3 77 12 15 19 29 16 32 -2 3 -14 -7 -25 -21 -38
-48 -97 -16 -77 41 22 61 133 83 215 42z m747 -70 c-3 -8 -6 -5 -6 6 -1 11 2
17 5 13 3 -3 4 -12 1 -19z m58 -38 c3 -6 -1 -7 -9 -4 -18 7 -21 14 -7 14 6 0
13 -4 16 -10z m-565 -310 c0 -5 -7 -7 -15 -4 -8 4 -15 8 -15 10 0 2 7 4 15 4
8 0 15 -4 15 -10z m123 -25 c-3 -9 -8 -14 -10 -11 -3 3 -2 9 2 15 9 16 15 13
8 -4z"/>
<path d="M876 1093 c-4 -9 -2 -21 3 -26 15 -15 46 -3 49 21 3 18 -1 22 -21 22
-14 0 -28 -7 -31 -17z"/>
<path d="M1303 915 c0 -22 2 -30 4 -17 2 12 2 30 0 40 -3 9 -5 -1 -4 -23z"/>
<path d="M576 902 c-5 -8 -19 -10 -41 -6 -30 5 -39 1 -84 -42 -28 -27 -51 -53
-51 -59 0 -5 5 -2 11 8 21 36 108 62 124 37 4 -6 11 -8 16 -4 17 10 -30 36
-57 31 -32 -6 -31 1 2 14 19 6 37 6 61 -2 40 -13 43 -11 33 15 -4 14 -9 16
-14 8z"/>
<path d="M247 492 c-14 -15 -14 -19 -3 -19 8 0 17 9 19 19 3 10 4 18 3 18 -2
0 -10 -8 -19 -18z"/>
<path d="M480 472 c-14 -9 -28 -21 -32 -27 -11 -15 -9 -45 3 -45 5 0 8 4 5 9
-9 15 5 41 21 41 9 0 22 8 29 18 16 21 47 6 52 -27 4 -22 22 -30 22 -8 0 24
-31 57 -53 56 -12 0 -33 -8 -47 -17z"/>
<path d="M180 428 c0 -9 -6 -19 -12 -21 -7 -3 -8 -6 -3 -6 6 0 17 4 25 9 12 7
12 12 2 22 -9 9 -12 9 -12 -4z"/>
<path d="M256 338 c-17 -24 -22 -68 -7 -68 5 0 9 12 9 26 0 14 7 33 16 42 16
16 18 16 31 -1 7 -11 11 -25 8 -33 -4 -10 3 -14 22 -14 24 0 26 -3 21 -25 -6
-23 -3 -25 25 -25 31 0 31 -1 26 -35 -4 -26 -2 -35 9 -35 17 0 19 42 4 71 -6
10 -20 19 -30 19 -14 0 -20 7 -20 21 0 12 -8 23 -18 26 -10 2 -22 14 -27 26
-14 31 -49 33 -69 5z"/>
<path d="M127 337 c-11 -29 -9 -43 4 -30 6 6 9 19 7 29 -3 18 -4 18 -11 1z"/>
</g>
</svg>
